<svg width="20" height="20" viewBox="0 0 20 20" fill="none" xmlns="http://www.w3.org/2000/svg">
<g clip-path="url(#clip0_63_1117)">
<path d="M13.5834 0.109863V1.43561H17.6047L12.8038 6.23632C11.4594 5.10354 9.72555 4.41904 7.83407 4.41904C3.57494 4.41926 0.109863 7.88434 0.109863 12.1435C0.109863 16.4026 3.57494 19.8677 7.83407 19.8677C12.0932 19.8677 15.5583 16.4026 15.5583 12.1435C15.5583 10.252 14.8738 8.51813 13.741 7.17372L18.5419 2.37279V6.39417H19.8677V0.109863H13.5834ZM7.83407 18.5419C4.30598 18.5419 1.43539 15.6716 1.43539 12.1435C1.43539 8.61538 4.30576 5.74479 7.83407 5.74479C11.3624 5.74479 14.2327 8.61516 14.2327 12.1435C14.2327 15.6716 11.3624 18.5419 7.83407 18.5419Z" fill="#F79009"/>
</g>
<defs>
<clipPath id="clip0_63_1117">
<rect width="20" height="20" fill="white"/>
</clipPath>
</defs>
</svg>
